<svg width="190" height="35" viewBox="0 0 190 35" fill="none" xmlns="http://www.w3.org/2000/svg">
<path d="M43.0525 25C42.6792 25 42.3725 24.8867 42.1325 24.66C41.8925 24.42 41.7725 24.1267 41.7725 23.78V12.18H44.3725V23.78C44.3725 24.1267 44.2458 24.42 43.9925 24.66C43.7525 24.8867 43.4392 25 43.0525 25ZM38.6325 13.3C38.2858 13.3 37.9925 13.1933 37.7525 12.98C37.5258 12.7667 37.4125 12.4867 37.4125 12.14C37.4125 11.7933 37.5258 11.52 37.7525 11.32C37.9925 11.1067 38.2858 11 38.6325 11H47.5125C47.8592 11 48.1458 11.1067 48.3725 11.32C48.6125 11.5333 48.7325 11.8133 48.7325 12.16C48.7325 12.5067 48.6125 12.7867 48.3725 13C48.1458 13.2 47.8592 13.3 47.5125 13.3H38.6325ZM52.112 11C52.432 11 52.712 11.12 52.952 11.36C53.2054 11.5867 53.332 11.8733 53.332 12.22V23.78C53.332 24.1267 53.2054 24.42 52.952 24.66C52.6987 24.8867 52.4054 25 52.072 25C51.6987 25 51.3987 24.8867 51.172 24.66C50.9454 24.42 50.832 24.1267 50.832 23.78V12.22C50.832 11.8733 50.952 11.5867 51.192 11.36C51.432 11.12 51.7387 11 52.112 11ZM60.972 11C61.3454 11 61.6454 11.12 61.872 11.36C62.0987 11.5867 62.212 11.8733 62.212 12.22V23.78C62.212 24.1267 62.092 24.42 61.852 24.66C61.6254 24.8867 61.3187 25 60.932 25C60.612 25 60.3254 24.8867 60.072 24.66C59.832 24.42 59.712 24.1267 59.712 23.78V12.22C59.712 11.8733 59.8387 11.5867 60.092 11.36C60.3454 11.12 60.6387 11 60.972 11ZM52.052 16.82H60.972V19.12H52.052V16.82ZM66.427 11H73.127C73.4737 11 73.7604 11.1133 73.987 11.34C74.227 11.5533 74.347 11.8333 74.347 12.18C74.347 12.5133 74.227 12.7867 73.987 13C73.7604 13.2 73.4737 13.3 73.127 13.3H67.527L67.707 12.96V16.86L67.547 16.7H72.227C72.5737 16.7 72.8604 16.8133 73.087 17.04C73.327 17.2533 73.447 17.5333 73.447 17.88C73.447 18.2133 73.327 18.4867 73.087 18.7C72.8604 18.9 72.5737 19 72.227 19H67.607L67.707 18.84V22.88L67.547 22.7H73.127C73.4737 22.7 73.7604 22.82 73.987 23.06C74.227 23.2867 74.347 23.5533 74.347 23.86C74.347 24.1933 74.227 24.4667 73.987 24.68C73.7604 24.8933 73.4737 25 73.127 25H66.427C66.0804 25 65.787 24.8867 65.547 24.66C65.3204 24.42 65.207 24.1267 65.207 23.78V12.22C65.207 11.8733 65.3204 11.5867 65.547 11.36C65.787 11.12 66.0804 11 66.427 11ZM78.0923 25C77.719 25 77.3857 24.8867 77.0923 24.66C76.799 24.42 76.6523 24.1267 76.6523 23.78V12.22C76.6523 11.8733 76.7657 11.5867 76.9923 11.36C77.2323 11.12 77.5257 11 77.8723 11H83.6323C84.3257 11 84.9723 11.1867 85.5723 11.56C86.1857 11.92 86.679 12.4267 87.0523 13.08C87.4257 13.72 87.6123 14.46 87.6123 15.3C87.6123 15.8067 87.5057 16.3 87.2923 16.78C87.0923 17.26 86.8123 17.6933 86.4523 18.08C86.1057 18.4667 85.7123 18.7667 85.2723 18.98L85.2923 18.52C85.6657 18.72 85.9723 18.96 86.2123 19.24C86.4657 19.5067 86.659 19.8 86.7923 20.12C86.939 20.4267 87.0257 20.76 87.0523 21.12C87.1057 21.4533 87.139 21.7467 87.1523 22C87.179 22.2533 87.219 22.4667 87.2723 22.64C87.339 22.8133 87.459 22.9467 87.6323 23.04C87.9257 23.2133 88.1057 23.4667 88.1723 23.8C88.2523 24.12 88.179 24.4067 87.9523 24.66C87.8057 24.8333 87.619 24.9467 87.3923 25C87.1657 25.04 86.939 25.04 86.7123 25C86.4857 24.9467 86.299 24.88 86.1523 24.8C85.9257 24.6667 85.699 24.4733 85.4723 24.22C85.2457 23.9533 85.059 23.6 84.9123 23.16C84.779 22.72 84.7123 22.1533 84.7123 21.46C84.7123 21.2333 84.6723 21.0267 84.5923 20.84C84.5123 20.64 84.399 20.4733 84.2523 20.34C84.1057 20.1933 83.919 20.0867 83.6923 20.02C83.4657 19.94 83.199 19.9 82.8923 19.9H78.8523L79.1523 19.44V23.78C79.1523 24.1267 79.059 24.42 78.8723 24.66C78.6857 24.8867 78.4257 25 78.0923 25ZM78.8723 17.84H83.5323C83.7723 17.84 84.0057 17.7333 84.2323 17.52C84.459 17.2933 84.6457 16.9933 84.7923 16.62C84.939 16.2333 85.0123 15.8133 85.0123 15.36C85.0123 14.7733 84.8523 14.2867 84.5323 13.9C84.2257 13.5 83.8923 13.3 83.5323 13.3H78.9123L79.1523 12.66V18.32L78.8723 17.84ZM95.5228 14.14L91.2028 24.3C91.1095 24.5533 90.9628 24.7533 90.7628 24.9C90.5761 25.0333 90.3695 25.1 90.1428 25.1C89.7828 25.1 89.5161 25 89.3428 24.8C89.1695 24.6 89.0828 24.3533 89.0828 24.06C89.0828 23.94 89.1028 23.8133 89.1428 23.68L94.1228 11.72C94.2295 11.4533 94.3895 11.2467 94.6028 11.1C94.8295 10.9533 95.0695 10.8933 95.3228 10.92C95.5628 10.92 95.7828 10.9933 95.9828 11.14C96.1961 11.2733 96.3495 11.4667 96.4428 11.72L101.363 23.44C101.429 23.6133 101.463 23.7733 101.463 23.92C101.463 24.28 101.343 24.5667 101.103 24.78C100.876 24.9933 100.623 25.1 100.343 25.1C100.103 25.1 99.8828 25.0267 99.6828 24.88C99.4961 24.7333 99.3495 24.5333 99.2428 24.28L94.9428 14.26L95.5228 14.14ZM91.8228 21.86L92.9228 19.56H98.3228L98.7028 21.86H91.8228ZM108.936 11C109.63 11 110.276 11.2 110.876 11.6C111.49 12 111.983 12.54 112.356 13.22C112.73 13.9 112.916 14.66 112.916 15.5C112.916 16.3267 112.73 17.08 112.356 17.76C111.983 18.44 111.49 18.9867 110.876 19.4C110.276 19.8 109.63 20 108.936 20H105.256L105.456 19.64V23.78C105.456 24.1267 105.35 24.42 105.136 24.66C104.923 24.8867 104.643 25 104.296 25C103.963 25 103.69 24.8867 103.476 24.66C103.263 24.42 103.156 24.1267 103.156 23.78V12.22C103.156 11.8733 103.27 11.5867 103.496 11.36C103.736 11.12 104.03 11 104.376 11H108.936ZM108.936 17.72C109.19 17.72 109.436 17.6133 109.676 17.4C109.916 17.1867 110.116 16.9133 110.276 16.58C110.436 16.2333 110.516 15.8733 110.516 15.5C110.516 15.1133 110.436 14.7533 110.276 14.42C110.116 14.0867 109.916 13.82 109.676 13.62C109.436 13.4067 109.19 13.3 108.936 13.3H105.216L105.456 12.94V18.04L105.236 17.72H108.936ZM124.127 10.94C124.434 10.94 124.707 11.06 124.947 11.3C125.2 11.5267 125.327 11.82 125.327 12.18C125.327 12.3 125.307 12.4267 125.267 12.56C125.24 12.68 125.187 12.8 125.107 12.92L120.567 19.42L120.927 18.04V23.78C120.927 24.1267 120.807 24.42 120.567 24.66C120.34 24.8867 120.074 25 119.767 25C119.434 25 119.147 24.8867 118.907 24.66C118.68 24.42 118.567 24.1267 118.567 23.78V18.2L118.727 18.84L114.407 13.1C114.274 12.9267 114.18 12.76 114.127 12.6C114.074 12.44 114.047 12.2933 114.047 12.16C114.047 11.8 114.187 11.5067 114.467 11.28C114.747 11.0533 115.034 10.94 115.327 10.94C115.7 10.94 116.027 11.1267 116.307 11.5L120.147 16.8L119.587 16.72L123.127 11.54C123.407 11.14 123.74 10.94 124.127 10.94Z" fill="#112908"/>
<path d="M135.681 14.1C136.028 14.1 136.314 14.2133 136.541 14.44C136.768 14.6667 136.881 14.96 136.881 15.32V23.78C136.881 24.1267 136.768 24.42 136.541 24.66C136.314 24.8867 136.028 25 135.681 25C135.334 25 135.048 24.8867 134.821 24.66C134.594 24.42 134.481 24.1267 134.481 23.78V22.8L134.921 22.98C134.921 23.1533 134.828 23.3667 134.641 23.62C134.454 23.86 134.201 24.1 133.881 24.34C133.561 24.58 133.181 24.7867 132.741 24.96C132.314 25.12 131.848 25.2 131.341 25.2C130.421 25.2 129.588 24.9667 128.841 24.5C128.094 24.02 127.501 23.3667 127.061 22.54C126.634 21.7 126.421 20.74 126.421 19.66C126.421 18.5667 126.634 17.6067 127.061 16.78C127.501 15.94 128.088 15.2867 128.821 14.82C129.554 14.34 130.368 14.1 131.261 14.1C131.834 14.1 132.361 14.1867 132.841 14.36C133.321 14.5333 133.734 14.7533 134.081 15.02C134.441 15.2867 134.714 15.56 134.901 15.84C135.101 16.1067 135.201 16.3333 135.201 16.52L134.481 16.78V15.32C134.481 14.9733 134.594 14.6867 134.821 14.46C135.048 14.22 135.334 14.1 135.681 14.1ZM131.641 23C132.228 23 132.741 22.8533 133.181 22.56C133.621 22.2667 133.961 21.8667 134.201 21.36C134.454 20.8533 134.581 20.2867 134.581 19.66C134.581 19.02 134.454 18.4467 134.201 17.94C133.961 17.4333 133.621 17.0333 133.181 16.74C132.741 16.4467 132.228 16.3 131.641 16.3C131.068 16.3 130.561 16.4467 130.121 16.74C129.681 17.0333 129.334 17.4333 129.081 17.94C128.841 18.4467 128.721 19.02 128.721 19.66C128.721 20.2867 128.841 20.8533 129.081 21.36C129.334 21.8667 129.681 22.2667 130.121 22.56C130.561 22.8533 131.068 23 131.641 23ZM145.1 14.1C146.166 14.1 146.953 14.36 147.46 14.88C147.966 15.3867 148.3 16.0467 148.46 16.86L148.12 16.68L148.28 16.36C148.44 16.0533 148.686 15.7267 149.02 15.38C149.353 15.02 149.753 14.72 150.22 14.48C150.7 14.2267 151.233 14.1 151.82 14.1C152.78 14.1 153.506 14.3067 154 14.72C154.506 15.1333 154.853 15.6867 155.04 16.38C155.226 17.06 155.32 17.82 155.32 18.66V23.78C155.32 24.1267 155.206 24.42 154.98 24.66C154.753 24.8867 154.466 25 154.12 25C153.773 25 153.486 24.8867 153.26 24.66C153.033 24.42 152.92 24.1267 152.92 23.78V18.66C152.92 18.22 152.866 17.8267 152.76 17.48C152.653 17.12 152.46 16.8333 152.18 16.62C151.9 16.4067 151.5 16.3 150.98 16.3C150.473 16.3 150.04 16.4067 149.68 16.62C149.32 16.8333 149.046 17.12 148.86 17.48C148.686 17.8267 148.6 18.22 148.6 18.66V23.78C148.6 24.1267 148.486 24.42 148.26 24.66C148.033 24.8867 147.746 25 147.4 25C147.053 25 146.766 24.8867 146.54 24.66C146.313 24.42 146.2 24.1267 146.2 23.78V18.66C146.2 18.22 146.146 17.8267 146.04 17.48C145.933 17.12 145.74 16.8333 145.46 16.62C145.18 16.4067 144.78 16.3 144.26 16.3C143.753 16.3 143.32 16.4067 142.96 16.62C142.6 16.8333 142.326 17.12 142.14 17.48C141.966 17.8267 141.88 18.22 141.88 18.66V23.78C141.88 24.1267 141.766 24.42 141.54 24.66C141.313 24.8867 141.026 25 140.68 25C140.333 25 140.046 24.8867 139.82 24.66C139.593 24.42 139.48 24.1267 139.48 23.78V15.52C139.48 15.1733 139.593 14.8867 139.82 14.66C140.046 14.42 140.333 14.3 140.68 14.3C141.026 14.3 141.313 14.42 141.54 14.66C141.766 14.8867 141.88 15.1733 141.88 15.52V16.38L141.58 16.32C141.7 16.0933 141.866 15.8533 142.08 15.6C142.293 15.3333 142.553 15.0867 142.86 14.86C143.166 14.6333 143.506 14.4533 143.88 14.32C144.253 14.1733 144.66 14.1 145.1 14.1ZM160.177 23.78C160.177 24.1267 160.064 24.42 159.837 24.66C159.611 24.8867 159.324 25 158.977 25C158.631 25 158.344 24.8867 158.117 24.66C157.891 24.42 157.777 24.1267 157.777 23.78V15.52C157.777 15.1733 157.891 14.8867 158.117 14.66C158.344 14.42 158.631 14.3 158.977 14.3C159.324 14.3 159.611 14.42 159.837 14.66C160.064 14.8867 160.177 15.1733 160.177 15.52V23.78ZM158.957 13C158.504 13 158.184 12.9267 157.997 12.78C157.811 12.6333 157.717 12.3733 157.717 12V11.62C157.717 11.2333 157.817 10.9733 158.017 10.84C158.231 10.6933 158.551 10.62 158.977 10.62C159.444 10.62 159.771 10.6933 159.957 10.84C160.144 10.9867 160.237 11.2467 160.237 11.62V12C160.237 12.3867 160.137 12.6533 159.937 12.8C159.737 12.9333 159.411 13 158.957 13ZM167.084 14.1C167.644 14.1 168.157 14.1867 168.624 14.36C169.09 14.5333 169.49 14.7533 169.824 15.02C170.17 15.2867 170.437 15.56 170.624 15.84C170.824 16.1067 170.924 16.3333 170.924 16.52L170.404 16.78V15.32C170.404 14.9733 170.517 14.6867 170.744 14.46C170.97 14.22 171.257 14.1 171.604 14.1C171.95 14.1 172.237 14.2133 172.464 14.44C172.69 14.6667 172.804 14.96 172.804 15.32V24.22C172.804 25.38 172.55 26.3067 172.044 27C171.55 27.7067 170.897 28.2133 170.084 28.52C169.27 28.84 168.397 29 167.464 29C167.197 29 166.85 28.9667 166.424 28.9C165.997 28.8333 165.59 28.7533 165.204 28.66C164.817 28.5667 164.524 28.48 164.324 28.4C163.924 28.2267 163.644 28.0067 163.484 27.74C163.337 27.4867 163.31 27.2133 163.404 26.92C163.524 26.5333 163.717 26.2667 163.984 26.12C164.25 25.9867 164.53 25.9733 164.824 26.08C164.957 26.12 165.177 26.2 165.484 26.32C165.79 26.44 166.124 26.5467 166.484 26.64C166.857 26.7467 167.184 26.8 167.464 26.8C168.464 26.8 169.204 26.6 169.684 26.2C170.164 25.8 170.404 25.2467 170.404 24.54V22.8L170.644 22.98C170.644 23.1533 170.55 23.3667 170.364 23.62C170.19 23.86 169.944 24.1 169.624 24.34C169.317 24.58 168.95 24.7867 168.524 24.96C168.097 25.12 167.644 25.2 167.164 25.2C166.217 25.2 165.364 24.9667 164.604 24.5C163.844 24.02 163.244 23.3667 162.804 22.54C162.364 21.7 162.144 20.74 162.144 19.66C162.144 18.5667 162.364 17.6067 162.804 16.78C163.244 15.94 163.837 15.2867 164.584 14.82C165.33 14.34 166.164 14.1 167.084 14.1ZM167.464 16.3C166.864 16.3 166.337 16.4467 165.884 16.74C165.43 17.0333 165.077 17.4333 164.824 17.94C164.57 18.4467 164.444 19.02 164.444 19.66C164.444 20.2867 164.57 20.8533 164.824 21.36C165.077 21.8667 165.43 22.2667 165.884 22.56C166.337 22.8533 166.864 23 167.464 23C168.077 23 168.61 22.8533 169.064 22.56C169.517 22.2667 169.87 21.8667 170.124 21.36C170.377 20.8533 170.504 20.2867 170.504 19.66C170.504 19.02 170.377 18.4467 170.124 17.94C169.87 17.4333 169.517 17.0333 169.064 16.74C168.61 16.4467 168.077 16.3 167.464 16.3ZM185.387 19.66C185.387 20.7533 185.14 21.72 184.647 22.56C184.167 23.3867 183.514 24.0333 182.687 24.5C181.874 24.9667 180.96 25.2 179.947 25.2C178.934 25.2 178.014 24.9667 177.187 24.5C176.374 24.0333 175.72 23.3867 175.227 22.56C174.747 21.72 174.507 20.7533 174.507 19.66C174.507 18.5667 174.747 17.6067 175.227 16.78C175.72 15.94 176.374 15.2867 177.187 14.82C178.014 14.34 178.934 14.1 179.947 14.1C180.96 14.1 181.874 14.34 182.687 14.82C183.514 15.2867 184.167 15.94 184.647 16.78C185.14 17.6067 185.387 18.5667 185.387 19.66ZM182.987 19.66C182.987 18.98 182.847 18.3933 182.567 17.9C182.3 17.3933 181.934 17 181.467 16.72C181.014 16.44 180.507 16.3 179.947 16.3C179.387 16.3 178.874 16.44 178.407 16.72C177.954 17 177.587 17.3933 177.307 17.9C177.04 18.3933 176.907 18.98 176.907 19.66C176.907 20.3267 177.04 20.9133 177.307 21.42C177.587 21.9133 177.954 22.3 178.407 22.58C178.874 22.86 179.387 23 179.947 23C180.507 23 181.014 22.86 181.467 22.58C181.934 22.3 182.3 21.9133 182.567 21.42C182.847 20.9133 182.987 20.3267 182.987 19.66Z" fill="#AAC8A7"/>
<path d="M3.07375 33.1424L1.52611 30.9004C1.22924 30.4703 1.31247 29.8818 1.73339 29.5721C7.17981 25.5652 14.1642 24.6121 16.7838 24.6845C22.6592 24.5457 29.0385 27.4362 32.2108 29.4559C32.6611 29.7426 32.7721 30.3393 32.4824 30.7877L30.9979 33.0846C30.6794 33.5774 30.0079 33.6893 29.5231 33.3588C25.2293 30.4321 20.0436 29.6316 17.8649 29.608C12.6466 29.2695 7.25551 31.6544 4.52283 33.4087C4.04396 33.7162 3.39703 33.6107 3.07375 33.1424Z" fill="#AAC8A7" stroke="#AAC8A7"/>
<path d="M22.1471 8.82953L23.7323 6.78817C24.0313 6.40316 24.0138 5.85013 23.6254 5.55554C22.0918 4.39231 19.9138 4.08884 18.8445 4.0007C13.3094 3.94011 10.6523 7.81522 9.90759 9.83512C8.00489 16.6826 11.5059 20.7147 13.6553 21.9545C16.8567 23.8011 21.3582 22.7558 23.6889 21.5211C24.1914 21.2549 24.2675 20.6043 23.9037 20.1673L22.1969 18.1173C21.8384 17.6866 21.1922 17.6409 20.6845 17.878C19.337 18.5069 17.5801 18.5357 16.8986 18.3925C13.2085 17.1199 13.3979 13.4689 13.9761 12.0304C15.3083 8.71633 18.6856 8.37542 20.6808 9.14219C21.1903 9.33802 21.8123 9.26071 22.1471 8.82953Z" fill="#112908" stroke="#112908"/>
</svg>
